# Exported by Open Cascade CAD Assistant [www.opencascade.com]
#  Vertices: 24
#     Faces: 12
mtllib Faces (appearance) 2.mtl
g Faces (appearance) v1
usemtl mat_1
v 25.000000 0.000000 -25.000000
v -25.000000 0.000000 -25.000000
v -25.000000 50.000000 -25.000000
v 25.000000 50.000000 -25.000000
vn 0.000000 0.000000 -1.000000
vn 0.000000 0.000000 -1.000000
vn 0.000000 0.000000 -1.000000
vn 0.000000 0.000000 -1.000000
f 3//3 1//1 2//2
f 3//3 4//4 1//1
v 25.000000 0.000000 25.000000
v 25.000000 0.000000 -25.000000
v 25.000000 50.000000 -25.000000
v 25.000000 50.000000 25.000000
vn 1.000000 0.000000 0.000000
vn 1.000000 0.000000 0.000000
vn 1.000000 0.000000 0.000000
vn 1.000000 0.000000 0.000000
f 7//7 5//5 6//6
f 7//7 8//8 5//5
v -25.000000 0.000000 25.000000
v 25.000000 0.000000 25.000000
v 25.000000 50.000000 25.000000
v -25.000000 50.000000 25.000000
vn 0.000000 0.000000 1.000000
vn 0.000000 0.000000 1.000000
vn 0.000000 0.000000 1.000000
vn 0.000000 0.000000 1.000000
f 11//11 9//9 10//10
f 11//11 12//12 9//9
v -25.000000 0.000000 -25.000000
v -25.000000 0.000000 25.000000
v -25.000000 50.000000 25.000000
v -25.000000 50.000000 -25.000000
vn -1.000000 0.000000 0.000000
vn -1.000000 0.000000 0.000000
vn -1.000000 0.000000 0.000000
vn -1.000000 0.000000 0.000000
f 15//15 13//13 14//14
f 15//15 16//16 13//13
v -25.000000 50.000000 -25.000000
v -25.000000 50.000000 25.000000
v 25.000000 50.000000 25.000000
v 25.000000 50.000000 -25.000000
vn 0.000000 1.000000 0.000000
vn 0.000000 1.000000 0.000000
vn 0.000000 1.000000 0.000000
vn 0.000000 1.000000 0.000000
f 20//20 17//17 18//18
f 20//20 18//18 19//19
v -25.000000 0.000000 25.000000
v 25.000000 0.000000 25.000000
v 25.000000 0.000000 -25.000000
v -25.000000 0.000000 -25.000000
vn 0.000000 -1.000000 0.000000
vn 0.000000 -1.000000 0.000000
vn 0.000000 -1.000000 0.000000
vn 0.000000 -1.000000 0.000000
f 23//23 22//22 21//21
f 23//23 21//21 24//24
